HIERARCHY
ROOT Hips
{
	OFFSET -3.958830 18.904000 13.208200
	CHANNELS 6 Xposition Yposition Zposition Zrotation Yrotation Xrotation 
	JOINT LHipJoint
	{
		OFFSET 0.000000 0.000000 0.000000
		CHANNELS 3 Zrotation Yrotation Xrotation
		JOINT LeftUpLeg
		{
			OFFSET 1.800000 -1.400000 0.085000
			CHANNELS 3 Zrotation Yrotation Xrotation
			JOINT LeftLeg
			{
				OFFSET 2.215000 -6.000000 0.000000
				CHANNELS 3 Zrotation Yrotation Xrotation
				JOINT LeftFoot
				{
					OFFSET 2.500000 -6.900000 0.000000
					CHANNELS 3 Zrotation Yrotation Xrotation
					JOINT LeftToeBase
					{
						OFFSET 0.200000 -0.500000 1.950000
						CHANNELS 3 Zrotation Yrotation Xrotation
						End Site
						{
							OFFSET 0.000000 0.000000 0.000000
						}
					}
				}
			}
		}
	}
	JOINT RHipJoint
	{
		OFFSET 0.000000 0.000000 0.000000
		CHANNELS 3 Zrotation Yrotation Xrotation
		JOINT RightUpLeg
		{
			OFFSET -1.800000 -1.400000 0.085000
			CHANNELS 3 Zrotation Yrotation Xrotation
			JOINT RightLeg
			{
				OFFSET -2.215000 -6.000000 0.000000
				CHANNELS 3 Zrotation Yrotation Xrotation
				JOINT RightFoot
				{
					OFFSET -2.500000 -6.900000 0.000000
					CHANNELS 3 Zrotation Yrotation Xrotation
					JOINT RightToeBase
					{
						OFFSET -0.200000 -0.500000 1.950000
						CHANNELS 3 Zrotation Yrotation Xrotation
						End Site
						{
							OFFSET 0.000000 0.000000 0.000000
						}
					}
				}
			}
		}
	}
	JOINT LowerBack
	{
		OFFSET 0.000000 0.000000 0.000000
		CHANNELS 3 Zrotation Yrotation Xrotation
		JOINT Spine
		{
			OFFSET -0.087000 1.940000 -0.288900
			CHANNELS 3 Zrotation Yrotation Xrotation
			JOINT Spine1
			{
				OFFSET 0.000000 1.950000 0.060000
				CHANNELS 3 Zrotation Yrotation Xrotation
				JOINT Neck
				{
					OFFSET 0.000000 0.000000 0.000000
					CHANNELS 3 Zrotation Yrotation Xrotation
					JOINT Neck1
					{
						OFFSET 0.000000 1.600000 0.340000
						CHANNELS 3 Zrotation Yrotation Xrotation
						JOINT Head
						{
							OFFSET 0.000000 1.667000 -0.240000
							CHANNELS 3 Zrotation Yrotation Xrotation
							End Site
							{
								OFFSET 0.000000 0.000000 0.000000
							}
						}
					}
				}
				JOINT LeftShoulder
				{
					OFFSET 0.000000 0.000000 0.000000
					CHANNELS 3 Zrotation Yrotation Xrotation
					JOINT LeftArm
					{
						OFFSET 2.700000 1.550000 -0.730000
						CHANNELS 3 Zrotation Yrotation Xrotation
						JOINT LeftForeArm
						{
							OFFSET 5.450000 0.000000 0.000000
							CHANNELS 3 Zrotation Yrotation Xrotation
							JOINT LeftHand
							{
								OFFSET 3.450000 0.000000 0.000000
								CHANNELS 3 Zrotation Yrotation Xrotation
								JOINT LeftHandIndex1
								{
									OFFSET 0.750000 0.000000 0.000000
									CHANNELS 3 Zrotation Yrotation Xrotation
									End Site
									{
										OFFSET 0.000000 0.000000 0.000000
									}
								}
							}
						}
					}
				}
				JOINT RightShoulder
				{
					OFFSET 0.000000 0.000000 0.000000
					CHANNELS 3 Zrotation Yrotation Xrotation
					JOINT RightArm
					{
						OFFSET -2.700000 1.550000 -0.730000
						CHANNELS 3 Zrotation Yrotation Xrotation
						JOINT RightForeArm
						{
							OFFSET -5.450000 0.000000 0.000000
							CHANNELS 3 Zrotation Yrotation Xrotation
							JOINT RightHand
							{
								OFFSET -3.450000 0.000000 0.000000
								CHANNELS 3 Zrotation Yrotation Xrotation
								JOINT RightHandIndex1
								{
									OFFSET -0.750000 0.000000 0.000000
									CHANNELS 3 Zrotation Yrotation Xrotation
									End Site
									{
										OFFSET 0.000000 0.000000 0.000000
									}
								}
							}
						}
					}
				}
			}
		}
	}
}
MOTION
Frames: 11
Frame Time: 0.016667
0.678070 17.078040 -1.462800 -7.505353 -11.718626 14.253199 -15.168233 12.414647 3.830261 -4.784801 -2.327159 -12.522062 -6.526623 2.176367 -8.179780 -0.217961 2.987142 3.691103 0.083830 -0.036690 -0.010160 18.266146 -10.802856 3.213480 -6.899613 -1.677673 10.409219 6.578080 -5.583616 2.716040 -0.771919 -5.205114 2.731499 0.005490 0.287750 0.152030 -3.407404 -0.866319 -8.358161 8.518762 4.852106 -0.126918 0.109206 4.691545 -3.374654 2.909559 -3.283709 -15.667409 -8.606204 4.941046 46.771111 -0.766300 2.449730 -1.330400 -13.076720 -12.552213 4.901162 -2.547502 -3.005134 0.118940 12.870601 -8.148631 -0.624982 -4.074116 2.659845 0.274190 0.142620 -0.001830 0.150600 8.459136 18.379463 11.050413 2.150804 7.922246 -0.482347 -9.049662 0.410587 -0.040869 2.713929 -1.032700 -0.141000 0.233840 0.096780 -0.045010 
0.676010 17.079210 -1.470590 -7.539641 -11.779770 14.160910 -15.164220 12.406629 3.825076 -4.789572 -2.316987 -12.440409 -6.411080 2.167791 -8.230236 -0.222610 2.992809 3.692980 0.083160 -0.035660 -0.013930 18.272055 -10.799494 3.225135 -6.855622 -1.696494 10.614776 6.515197 -5.568691 2.557711 -0.776521 -5.224403 2.727861 0.010100 0.296210 0.148660 -3.422084 -0.853561 -8.358917 8.633341 4.882109 -0.095551 0.062481 4.735051 -3.187129 2.898963 -3.376675 -15.691304 -8.753771 5.039548 46.780246 -0.708690 2.431980 -1.322590 -12.904054 -12.507254 4.868164 -2.826847 -3.209711 0.128591 13.130653 -8.238531 -0.653191 -4.078712 2.654201 0.272510 0.146780 -0.006620 0.153280 8.304921 18.444478 11.103308 2.228417 7.995056 -0.461243 -9.072489 0.291603 -0.044651 2.712094 -1.031606 -0.146420 0.243110 0.099070 -0.043750 
0.674250 17.080660 -1.478510 -7.576884 -11.881215 14.036228 -15.159463 12.397713 3.822805 -4.808680 -2.304693 -12.317292 -6.277744 2.156132 -8.287841 -0.223936 2.994901 3.693410 0.091000 -0.024530 -0.009880 18.276737 -10.802033 3.240358 -6.821319 -1.709062 10.825045 6.429081 -5.546347 2.390306 -0.783785 -5.243645 2.721028 0.019290 0.298730 0.148400 -3.434324 -0.825882 -8.368689 8.747950 4.917733 -0.011998 0.006079 4.792056 -3.005747 2.904396 -3.456431 -15.739620 -8.824333 5.136113 46.833095 -0.679760 2.457960 -1.394730 -12.633782 -12.422560 4.815510 -3.180048 -3.500528 0.158372 13.336919 -8.153595 -0.670875 -4.085456 2.651486 0.268580 0.149160 -0.007050 0.156290 8.013909 18.511409 11.175021 2.551906 8.151723 -0.422143 -9.310426 0.158595 -0.056557 2.713099 -1.039524 -0.146010 0.247540 0.095420 -0.042030 
0.672060 17.082610 -1.486820 -7.594065 -12.016684 13.821693 -15.155613 12.391190 3.822278 -4.853681 -2.277709 -12.113027 -6.114986 2.149145 -8.325810 -0.225566 2.996294 3.691995 0.098190 -0.007390 -0.010040 18.278162 -10.810599 3.259930 -6.796584 -1.721020 11.098377 6.289559 -5.518133 2.230681 -0.791573 -5.267188 2.710740 0.033790 0.301320 0.144330 -3.438605 -0.788647 -8.387876 8.827465 4.951933 0.164626 -0.007784 4.854298 -2.720591 2.911880 -3.591136 -15.859504 -8.947265 5.289007 46.883832 -0.646430 2.512500 -1.542760 -12.161764 -12.309980 4.762223 -3.848723 -3.898757 0.205087 13.717670 -8.017293 -0.697433 -4.095537 2.647776 0.260640 0.151250 -0.007950 0.158840 7.532707 18.652500 11.314017 3.125306 8.356004 -0.374535 -9.777654 -0.040420 -0.074203 2.715469 -1.050791 -0.146000 0.255700 0.093600 -0.038270 
0.669360 17.084420 -1.494160 -7.601846 -12.108487 13.663127 -15.152001 12.387125 3.820927 -4.846881 -2.256303 -11.981739 -6.050836 2.149034 -8.325263 -0.225071 2.997326 3.690573 0.106070 0.007220 -0.007920 18.279584 -10.818034 3.274030 -6.771488 -1.730288 11.278279 6.187580 -5.498126 2.121712 -0.798502 -5.282329 2.703984 0.043640 0.301320 0.143410 -3.443146 -0.760387 -8.401208 8.876332 4.979851 0.285845 -0.039867 4.906520 -2.547936 2.912323 -3.669559 -15.931499 -9.013349 5.373563 46.966988 -0.634950 2.541710 -1.666270 -11.862395 -12.237146 4.708026 -4.230278 -4.210350 0.233953 13.977690 -7.912642 -0.715146 -4.101568 2.646697 0.255660 0.152050 -0.006810 0.160980 7.232668 18.741346 11.404805 3.547255 8.479506 -0.363816 -10.238047 -0.095200 -0.093401 2.715167 -1.062903 -0.143190 0.259210 0.090490 -0.035490 
0.667290 17.085580 -1.499570 -7.636735 -12.141932 13.560723 -15.147502 12.385479 3.817682 -4.774557 -2.236345 -11.910701 -6.077874 2.154246 -8.311393 -0.226032 3.004668 3.687739 0.112960 0.016230 -0.005550 18.282853 -10.819819 3.283878 -6.750367 -1.745230 11.404233 6.188283 -5.497987 2.041535 -0.805469 -5.295906 2.698691 0.050000 0.301050 0.144940 -3.453591 -0.748381 -8.407151 8.986460 4.988159 0.342743 -0.102624 4.935427 -2.437139 2.919324 -3.714060 -15.959998 -9.059459 5.412453 47.034918 -0.658250 2.549320 -1.770280 -11.674972 -12.180176 4.663848 -4.441985 -4.422804 0.255527 14.123436 -7.865558 -0.728943 -4.104373 2.646831 0.255480 0.152350 -0.004830 0.164200 7.019344 18.775277 11.452161 3.846093 8.566512 -0.358766 -10.546036 -0.083286 -0.106678 2.711867 -1.072074 -0.141810 0.261140 0.087950 -0.034680 
0.664520 17.087720 -1.504150 -7.638974 -12.183213 13.519190 -15.147843 12.386147 3.815230 -4.756362 -2.237174 -11.920675 -6.074478 2.157153 -8.254573 -0.230895 3.001905 3.688570 0.117880 0.019850 -0.000360 18.281868 -10.819934 3.291143 -6.700180 -1.753095 11.453559 6.131713 -5.482938 1.954555 -0.810151 -5.294721 2.699757 0.051810 0.298620 0.144900 -3.450088 -0.743937 -8.411506 8.957360 5.008898 0.351866 -0.090343 4.956786 -2.478359 2.924496 -3.712074 -15.965031 -9.067210 5.420501 47.211889 -0.684540 2.559380 -1.878210 -11.602934 -12.139879 4.635931 -4.516365 -4.522834 0.263059 14.203513 -7.872570 -0.738026 -4.102852 2.642773 0.260790 0.150360 -0.002020 0.164680 6.940795 18.754605 11.453173 4.028498 8.606692 -0.367427 -10.744734 0.061806 -0.116876 2.705569 -1.074292 -0.142320 0.263320 0.086150 -0.037120 
0.661560 17.089910 -1.507310 -7.642591 -12.269589 13.542205 -15.149755 12.386008 3.812043 -4.709609 -2.246062 -11.990437 -6.137633 2.162691 -8.180896 -0.236170 3.000061 3.689497 0.123720 0.018800 0.008840 18.279601 -10.820097 3.292462 -6.705074 -1.744898 11.415051 6.155313 -5.484026 1.908104 -0.813816 -5.289059 2.703285 0.049240 0.293280 0.147330 -3.442170 -0.740336 -8.409637 8.872958 5.073085 0.294352 -0.049979 5.003331 -2.602642 2.941146 -3.663101 -15.949511 -9.032045 5.360359 47.416727 -0.757000 2.546060 -1.959820 -11.630263 -12.118418 4.612587 -4.432542 -4.563139 0.260898 14.169653 -7.912882 -0.741937 -4.098165 2.639601 0.270650 0.146990 0.001800 0.164320 6.947515 18.687274 11.439476 4.117551 8.539226 -0.381026 -10.818499 0.325134 -0.121794 2.695925 -1.074525 -0.142150 0.261610 0.083500 -0.042810 
0.659980 17.091820 -1.510650 -7.615671 -12.367909 13.470832 -15.150011 12.388032 3.812501 -4.752031 -2.248763 -11.966466 -6.086501 2.164465 -8.103365 -0.240847 2.992413 3.687358 0.128450 0.025020 0.012900 18.276481 -10.825609 3.300063 -6.739288 -1.733797 11.471407 6.151708 -5.482493 1.858848 -0.818063 -5.292738 2.697773 0.053420 0.287530 0.148320 -3.434242 -0.728571 -8.419714 8.815833 5.096415 0.343882 -0.025488 5.033354 -2.630490 2.949425 -3.699715 -15.997330 -9.081348 5.409310 47.586581 -0.761530 2.570500 -2.120040 -11.396217 -12.016713 4.583250 -4.764669 -4.673410 0.277041 14.372198 -7.978316 -0.759208 -4.096354 2.640505 0.273670 0.143100 0.006730 0.162780 6.708006 18.678275 11.480227 4.476606 8.598665 -0.353348 -11.000029 0.466079 -0.130504 2.692603 -1.077641 -0.140550 0.260940 0.082880 -0.043930 
0.659330 17.093770 -1.513140 -7.581465 -12.508299 13.408229 -15.150931 12.388285 3.812957 -4.848113 -2.259902 -11.950014 -5.976623 2.161764 -8.013321 -0.248451 2.979008 3.686371 0.131710 0.029520 0.016830 18.273203 -10.833451 3.305958 -6.777636 -1.713789 11.512238 6.098572 -5.474067 1.819896 -0.821417 -5.293269 2.692360 0.057000 0.280600 0.148800 -3.424453 -0.710189 -8.427286 8.723371 5.138157 0.377474 0.003938 5.075332 -2.682394 2.966464 -3.696279 -16.029493 -9.043963 5.444979 47.777650 -0.768700 2.623770 -2.290110 -11.222000 -11.933603 4.562399 -5.006125 -4.717033 0.287448 14.529762 -8.076413 -0.774227 -4.093988 2.640645 0.278070 0.138750 0.011590 0.159270 6.507869 18.655984 11.491076 4.815963 8.728668 -0.325269 -11.150234 0.405831 -0.126239 2.693437 -1.078794 -0.139940 0.259790 0.083780 -0.046680 
0.658960 17.094710 -1.516150 -7.542678 -12.668028 13.234257 -15.152583 12.385650 3.812132 -4.971472 -2.254669 -11.812429 -5.800122 2.158570 -7.930734 -0.251729 2.965141 3.684080 0.139370 0.043580 0.023800 18.268932 -10.844801 3.316780 -6.815659 -1.701286 11.677480 6.009503 -5.463841 1.771461 -0.828539 -5.307385 2.677231 0.066410 0.271360 0.149550 -3.411409 -0.677619 -8.438611 8.633929 5.170830 0.499443 0.060271 5.104989 -2.509256 3.001466 -3.729381 -16.120052 -8.992965 5.507672 47.841835 -0.811860 2.726260 -2.512070 -10.844410 -11.843957 4.547512 -5.502447 -4.898596 0.322847 14.743277 -7.891575 -0.782087 -4.098454 2.644408 0.275510 0.134640 0.016990 0.154550 6.077199 18.716806 11.566627 5.355073 8.938684 -0.261051 -11.408106 0.215013 -0.130347 2.700554 -1.088384 -0.135130 0.256270 0.081720 -0.047150 
